<?xml version="1.0" encoding="UTF-8"?>
<svg id="Layer_2" data-name="Layer 2" xmlns="http://www.w3.org/2000/svg" viewBox="0 0 1024 1024">
  <defs>
    <style>
      .cls-1 {
        fill: #39f;
      }

      .cls-2 {
        fill: #fff;
      }
    </style>
  </defs>
  <g id="Layer_1" data-name="Layer 1">
    <g>
      <rect class="cls-1" width="1024" height="1024"/>
      <g>
        <path class="cls-2" d="M233.74,530.7h195.65c1.96,0,3.59-1.49,3.79-3.43.51-5.02.77-10.11.77-15.27,0-6.33-.39-12.58-1.15-18.7-.79-6.37-1.98-12.61-3.54-18.7-1.64-6.41-3.7-12.65-6.15-18.7-2.17-5.38-4.64-10.6-7.39-15.64-.56-1.03-1.13-2.05-1.72-3.06-3.78-6.57-8.05-12.82-12.76-18.7-1.37-1.72-2.78-3.4-4.22-5.05-4.22-4.84-8.76-9.4-13.56-13.65-1.68-1.49-3.39-2.94-5.14-4.35-5.88-4.76-12.13-9.07-18.7-12.9-.84-.49-1.69-.98-2.54-1.45-5.2-2.9-10.6-5.49-16.16-7.76-6.05-2.47-12.29-4.54-18.7-6.21-6.09-1.58-12.34-2.78-18.7-3.58-6.13-.77-12.37-1.17-18.7-1.17s-12.58.39-18.7,1.17c-6.37.8-12.61,2-18.7,3.58-6.41,1.66-12.66,3.74-18.7,6.21-5.56,2.26-10.96,4.86-16.16,7.76-.85.47-1.7.96-2.54,1.45-6.57,3.82-12.82,8.14-18.7,12.9-1.75,1.41-3.46,2.86-5.14,4.35-4.8,4.25-9.34,8.81-13.56,13.65-1.45,1.65-2.85,3.34-4.22,5.05-4.7,5.88-8.98,12.13-12.76,18.7-.59,1.02-1.16,2.03-1.72,3.06-2.75,5.04-5.22,10.26-7.39,15.64-2.44,6.05-4.5,12.29-6.15,18.7-1.56,6.09-2.75,12.34-3.54,18.7-.76,6.13-1.15,12.37-1.15,18.7s.39,12.58,1.15,18.7c.79,6.37,1.98,12.61,3.54,18.7,1.64,6.41,3.7,12.65,6.15,18.7,2.17,5.38,4.64,10.6,7.39,15.64.56,1.03,1.13,2.05,1.72,3.06,3.78,6.57,8.05,12.82,12.76,18.7,1.37,1.72,2.78,3.4,4.22,5.05,4.22,4.84,8.76,9.4,13.56,13.65,1.68,1.49,3.39,2.94,5.14,4.35,5.88,4.76,12.13,9.07,18.7,12.9.84.49,1.69.98,2.54,1.45,5.2,2.9,10.6,5.49,16.16,7.76,6.05,2.47,12.29,4.54,18.7,6.21,6.09,1.58,12.34,2.78,18.7,3.58,6.13.77,12.37,1.17,18.7,1.17s12.58-.39,18.7-1.17c6.37-.8,12.61-2,18.7-3.58,6.41-1.66,12.66-3.74,18.7-6.21,5.56-2.26,10.96-4.86,16.16-7.76.85-.47,1.7-.96,2.54-1.45,6.57-3.82,12.82-8.14,18.7-12.9,1.75-1.41,3.46-2.86,5.14-4.35,4.8-4.25,9.34-8.81,13.56-13.65,1.45-1.65,2.85-3.34,4.22-5.05,4.7-5.88,8.98-12.13,12.76-18.7.59-1.02,1.16-2.03,1.72-3.06l.08-.15c1.39-2.53-.45-5.63-3.34-5.62l-178.68.24c-13.13.02-23.79-10.62-23.79-23.76h0c0-13.12,10.64-23.76,23.76-23.76ZM231.01,453.62l107.62.15c11.59.02,20.97,9.41,20.97,21h0c0,11.6-9.4,21-21,21h-107.62c-11.6,0-21-9.4-21-21v-.15c0-11.61,9.42-21.02,21.03-21Z"/>
        <g>
          <g>
            <path class="cls-2" d="M477.12,576.73c0-27.36,19.05-44.82,46.17-44.82,13.07,0,23.82,4.52,32.85,13.43l-13.92,14.29c-5.37-5.01-11.24-7.33-18.44-7.33-14.05,0-23.45,9.77-23.45,24.43s9.4,24.43,23.45,24.43c7.94,0,15.27-2.93,20.76-8.31l13.07,15.14c-9.53,9.16-20.76,13.56-33.83,13.56-28.7,0-46.66-18.08-46.66-44.82Z"/>
            <path class="cls-2" d="M617.21,564.15l-9.04,15.63c-3.42-2.2-5.86-2.93-9.04-2.93-6.84,0-11.6,3.91-11.6,13.31v29.31h-22.23v-60.34h19.54l1.47,7.21c3.91-6.23,9.65-8.55,15.39-8.55,5.01,0,11.11,1.83,15.51,6.35Z"/>
            <path class="cls-2" d="M688.17,559.14l-37.37,85.5h-23.45l11.6-26.5-23.33-58.99h23.82l5.13,14.41,6.72,20.76,7.08-20.76,5.74-14.41h24.06Z"/>
            <path class="cls-2" d="M762.31,589.31c0,18.44-11.73,31.39-28.34,31.39-6.84,0-12.7-2.2-17.59-6.6v30.53h-22.23v-85.5h19.3l1.22,6.96c5.13-5.5,11.48-8.18,19.3-8.18,16.61,0,28.34,12.95,28.34,31.39ZM740.33,589.31c0-7.82-4.89-13.07-12.09-13.07s-12.09,5.25-12.09,13.07,4.89,13.07,12.09,13.07,12.09-5.25,12.09-13.07Z"/>
            <path class="cls-2" d="M816.91,616.91c-5.37,2.93-11.11,4.03-17.47,4.03-12.09,0-22.23-5.5-22.23-24.43v-20.03h-9.65v-17.34h9.65v-14.53l22.11-2.44v16.98h13.8v17.34h-13.8v20.03c0,4.28,2.69,5.86,6.11,5.86,2.2,0,4.76-.73,6.47-1.59l5.01,16.12Z"/>
            <path class="cls-2" d="M820.94,589.31c0-19.3,13.07-31.51,33.71-31.51s33.71,12.21,33.71,31.51-13.07,31.51-33.71,31.51-33.71-12.21-33.71-31.51ZM866.38,589.31c0-7.94-4.76-13.19-11.72-13.19s-11.72,5.25-11.72,13.19,4.76,13.19,11.72,13.19,11.72-5.25,11.72-13.19Z"/>
          </g>
          <g>
            <path class="cls-2" d="M544.59,472.18v19.05h-68.03v-85.5h66.32v18.81h-43.97v14.29h41.53v18.08h-41.53v15.27h45.68Z"/>
            <path class="cls-2" d="M619.83,430.89v60.34h-19.3l-1.22-7.08c-5.13,5.5-11.6,8.31-19.3,8.31-16.61,0-28.34-12.95-28.34-31.39s11.73-31.39,28.34-31.39c7.82,0,14.17,2.69,19.3,8.18l1.22-6.96h19.3ZM597.84,461.06c0-7.82-4.89-13.07-12.09-13.07s-12.09,5.25-12.09,13.07,4.89,13.07,12.09,13.07,12.09-5.25,12.09-13.07Z"/>
            <path class="cls-2" d="M628.75,485.24l7.7-15.02c6.11,3.3,14.78,5.13,21.98,5.13,3.79,0,5.74-.98,5.74-2.93s-1.83-3.05-7.57-3.3c-14.9-.61-25.28-8.18-25.28-19.66,0-12.34,10.5-20.27,27.85-20.27,9.77,0,19.18,2.81,24.79,6.23l-8.18,14.53c-4.03-2.08-9.4-3.3-15.76-3.3-4.64,0-6.96.85-6.96,3.05,0,1.71,1.59,2.56,5.99,2.81,16.61.98,26.99,7.69,26.99,19.91,0,12.82-10.5,20.52-29.31,20.52-11.48,0-21.25-3.18-27.97-7.69Z"/>
            <path class="cls-2" d="M759.56,430.89l-37.37,85.5h-23.45l11.6-26.5-23.33-58.99h23.82l5.13,14.41,6.72,20.76,7.08-20.76,5.74-14.41h24.06Z"/>
          </g>
        </g>
      </g>
    </g>
  </g>
</svg>