<?xml version="1.0" encoding="UTF-8"?>
<svg id="Layer_3" data-name="Layer 3" xmlns="http://www.w3.org/2000/svg" viewBox="0 0 1024 1024">
  <defs>
    <style>
      .cls-1 {
        fill: #39f;
      }

      .cls-2 {
        fill: #fff;
      }
    </style>
  </defs>
  <g id="Swatch_Info_Layer" data-name="Swatch Info Layer">
    <g>
      <rect class="cls-2" width="1024" height="1024"/>
      <path class="cls-1" d="M423.34,541.55h322.52c1.21-9.68,1.82-19.54,1.82-29.55s-.62-19.87-1.82-29.55c-1.25-10.06-3.13-19.92-5.6-29.55-2.6-10.13-5.85-19.99-9.71-29.55-3.42-8.5-7.32-16.74-11.68-24.71-.88-1.63-1.79-3.24-2.72-4.84-5.98-10.38-12.73-20.25-20.16-29.55-2.16-2.71-4.39-5.37-6.67-7.98-6.67-7.64-13.84-14.85-21.43-21.57-2.66-2.35-5.36-4.65-8.13-6.88-9.29-7.52-19.17-14.34-29.55-20.38-1.33-.78-2.67-1.54-4.02-2.29-8.22-4.58-16.74-8.68-25.54-12.25-9.55-3.9-19.42-7.18-29.55-9.81-9.63-2.49-19.49-4.39-29.55-5.65-9.68-1.22-19.54-1.84-29.55-1.84s-19.87.62-29.55,1.84c-10.06,1.26-19.92,3.16-29.55,5.65-10.13,2.63-20,5.91-29.55,9.81-8.79,3.58-17.32,7.68-25.54,12.25-1.35.75-2.69,1.51-4.02,2.29-10.38,6.04-20.26,12.87-29.55,20.38-2.76,2.23-5.47,4.53-8.13,6.88-7.59,6.72-14.75,13.93-21.43,21.57-2.29,2.61-4.51,5.27-6.67,7.98-7.43,9.3-14.18,19.17-20.16,29.55-.93,1.6-1.84,3.21-2.72,4.84-4.35,7.97-8.25,16.21-11.68,24.71-3.86,9.56-7.12,19.42-9.71,29.55-2.47,9.63-4.35,19.49-5.6,29.55-1.21,9.68-1.82,19.54-1.82,29.55s.62,19.87,1.82,29.55c1.25,10.06,3.13,19.92,5.6,29.55,2.6,10.13,5.85,19.99,9.71,29.55,3.42,8.5,7.32,16.74,11.68,24.71.88,1.63,1.79,3.24,2.72,4.84,5.98,10.38,12.73,20.25,20.16,29.55,2.16,2.71,4.39,5.37,6.67,7.98,6.67,7.64,13.84,14.85,21.43,21.57,2.66,2.35,5.36,4.65,8.13,6.88,9.29,7.52,19.17,14.34,29.55,20.38,1.33.78,2.67,1.54,4.02,2.29,8.22,4.58,16.74,8.68,25.54,12.25,9.55,3.9,19.42,7.18,29.55,9.81,9.63,2.49,19.49,4.39,29.55,5.65,9.68,1.22,19.54,1.84,29.55,1.84s19.87-.62,29.55-1.84c10.06-1.26,19.92-3.16,29.55-5.65,10.13-2.63,20-5.91,29.55-9.81,8.79-3.58,17.32-7.68,25.54-12.25,1.35-.75,2.69-1.51,4.02-2.29,10.38-6.04,20.26-12.87,29.55-20.38,2.76-2.23,5.47-4.53,8.13-6.88,7.59-6.72,14.75-13.93,21.43-21.57,2.29-2.61,4.51-5.27,6.67-7.98,7.43-9.3,14.18-19.17,20.16-29.55.93-1.6,1.84-3.22,2.72-4.84,4.35-7.97,8.25-16.21,11.68-24.71h-307.2c-16.32,0-29.55-13.23-29.55-29.55h0c0-16.32,13.23-29.55,29.55-29.55ZM423.34,423.34h177.32c16.32,0,29.55,13.23,29.55,29.55h0c0,16.32-13.23,29.55-29.55,29.55h-177.32c-16.32,0-29.55-13.23-29.55-29.55h0c0-16.32,13.23-29.55,29.55-29.55Z"/>
    </g>
  </g>
</svg>